<svg width="32" height="32" viewBox="0 0 32 32" xmlns="http://www.w3.org/2000/svg">
    <defs>
        <clipPath id="60ho806p6a">
            <path d="M1440 0v3260H0V0h1440z"/>
        </clipPath>
        <clipPath id="5s7f1q1xqb">
            <path d="M21.944 0c2.612 0 4.723 2.165 4.723 4.843v16.98c0 2.678-2.111 4.844-4.723 4.844H4.722C2.112 26.667 0 24.5 0 21.823V4.843C0 2.165 2.111 0 4.722 0h17.222zm-3.348 10.226c-2.524 0-4.233 1.94-4.233 4.492 0 2.644 1.626 4.457 4.233 4.457 1.975 0 3.255-.91 3.874-2.857h-2.006c-.22.727-1.107 1.105-1.797 1.105-1.334 0-2.03-.8-2.03-2.155H22.6c.006-.14.018-.293.018-.44 0-2.509-1.435-4.602-4.023-4.602zM9.434 7.423H4.048v11.722h5.54c2.079-.012 4.025-1.031 4.024-3.413 0-1.471-.679-2.742-2.083-3.15 1.024-.501 1.56-1.081 1.56-2.26 0-2.331-1.696-2.899-3.655-2.899zm-.136 6.49c1.106.006 1.803.477 1.804 1.679 0 1.178-.833 1.551-1.858 1.551H6.56v-3.23h2.738zm9.22-1.929c1.143 0 1.714.684 1.815 1.813h-3.702c.071-1.117.798-1.813 1.887-1.813zM8.922 9.231c.906 0 1.721.256 1.721 1.337 0 .994-.637 1.398-1.536 1.398H6.566V9.23h2.356zm11.881-1.386h-4.63v1.153h4.63V7.845z"/>
        </clipPath>
    </defs>
    <g clip-path="url(#60ho806p6a)" transform="translate(-176 -740)">
        <g clip-path="url(#5s7f1q1xqb)" transform="translate(178.667 742.667)">
            <path fill="#7E7E7E" d="M0 0h26.667v26.667H0V0z"/>
        </g>
    </g>
</svg>
