<svg width="32" height="32" viewBox="0 0 32 32" xmlns="http://www.w3.org/2000/svg">
    <defs>
        <clipPath id="6fj5c1odla">
            <path d="M1440 0v3260H0V0h1440z"/>
        </clipPath>
        <clipPath id="myeqpfawzb">
            <path d="M24.692 0a1.951 1.951 0 0 1 1.975 1.923v22.82a1.951 1.951 0 0 1-1.975 1.924H1.967A1.947 1.947 0 0 1 0 24.743V1.924A1.947 1.947 0 0 1 1.967.002zm-6.711 9.68a4.16 4.16 0 0 0-3.743 2.055h-.052V9.997h-3.794v12.726h3.95v-6.295c0-1.66.316-3.268 2.374-3.268 2.029 0 2.055 1.899 2.055 3.375v6.188h3.951l.002-6.982c0-3.426-.738-6.06-4.743-6.06zm-10.073.317H3.953v12.726h3.955V9.997zM5.933 3.67a2.293 2.293 0 1 0 0 4.585 2.293 2.293 0 0 0 0-4.585z"/>
        </clipPath>
    </defs>
    <g clip-path="url(#6fj5c1odla)" transform="translate(-560 -628)">
        <g clip-path="url(#myeqpfawzb)" transform="translate(562.667 630.667)">
            <path fill="#7E7E7E" d="M0 0h26.667v26.667H0V0z"/>
        </g>
    </g>
</svg>
