<svg width="32" height="32" viewBox="0 0 32 32" xmlns="http://www.w3.org/2000/svg">
    <defs>
        <clipPath id="vel589ngba">
            <path d="M1440 0v3260H0V0h1440z"/>
        </clipPath>
        <clipPath id="y9pz8qjnub">
            <path d="M21.944 0c2.612 0 4.723 2.165 4.723 4.843v16.98c0 2.678-2.111 4.844-4.723 4.844H4.722C2.112 26.667 0 24.5 0 21.823V4.843C0 2.165 2.111 0 4.722 0h17.222zm-4.877 4H9.6A5.6 5.6 0 0 0 4 9.6v7.467a5.6 5.6 0 0 0 5.6 5.6h7.467a5.6 5.6 0 0 0 5.6-5.6V9.6a5.6 5.6 0 0 0-5.6-5.6zm0 1.867A3.733 3.733 0 0 1 20.8 9.6v7.467a3.733 3.733 0 0 1-3.733 3.733H9.6a3.733 3.733 0 0 1-3.733-3.733V9.6A3.733 3.733 0 0 1 9.6 5.867h7.467zm-3.734 2.8a4.667 4.667 0 1 0 0 9.333 4.667 4.667 0 0 0 0-9.333zm0 1.866a2.8 2.8 0 1 1 0 5.6 2.8 2.8 0 0 1 0-5.6zM18 7.733A.933.933 0 1 0 18 9.6a.933.933 0 0 0 0-1.867z"/>
        </clipPath>
    </defs>
    <g clip-path="url(#vel589ngba)" transform="translate(-944 -628)">
        <g clip-path="url(#y9pz8qjnub)" transform="translate(946.667 630.667)">
            <path fill="#7E7E7E" d="M0 0h26.667v26.667H0V0z"/>
        </g>
    </g>
</svg>
