<?xml version="1.0" encoding="UTF-8"?>
<svg width="24px" height="24px" viewBox="0 0 24 24" version="1.1" xmlns="http://www.w3.org/2000/svg" xmlns:xlink="http://www.w3.org/1999/xlink">
    <title>1. Icons/behance@3x</title>
    <g id="⚙️-Symbols" stroke="none" stroke-width="1" fill="none" fill-rule="evenodd">
        <g id="1.-Icons/behance" fill="#3F404D">
            <path d="M16,5 C16,5.55228001 16.4477,6 17,6 L21,6 C21.5523,6 22,5.55228001 22,5 C22,4.44771999 21.5523,4 21,4 L17,4 C16.4477,4 16,4.44771999 16,5 Z M19,8 C21.7614,8 24,10.2386 24,13 L24,14 C24,14.5523 23.5523,15 23,15 L16,15 C16,16.6569 17.3431,18 19,18 C19.6975,18 20.3393006,17.7620006 20.8488007,17.3628006 C21.1149006,17.1542006 21.4292999,17 21.7674999,17 C22.6243999,17 23.1727002,17.8850995 22.5732002,18.4974995 C21.6656002,19.4245995 20.4,20 19,20 C16.2386,20 14,17.7614 14,15 L14,13 C14,10.2386 16.2386,8 19,8 Z M16,13 L22,13 C22,11.3431 20.6569,10 19,10 C17.3431,10 16,11.3431 16,13 Z M2,10 L7,10 C8.10457003,10 9,9.10457003 9,8 C9,6.89542997 8.10457003,6 7,6 L2,6 L2,10 Z M11,8 C11,5.79085994 9.20914006,4 7,4 L1.60000002,4 C0.716343999,4 0,4.7163499 0,5.5999999 L0,18.2856998 C0,19.2324998 0.767513037,20 1.71429002,20 L7,20 C9.76142001,20 12,17.7614 12,15 C12,13.2759 11.1273999,11.7557001 9.79977989,10.8568001 C10.5404999,10.1308001 11,9.11907005 11,8 Z M2,18 L7,18 C8.65684998,18 10,16.6569 10,15 C10,13.3431 8.65684998,12 7,12 L2,12 L2,18 Z" id="Combined-Shape"></path>
        </g>
    </g>
</svg>