<?xml version="1.0" encoding="UTF-8"?><svg version="1.1" width="24px" height="24px" viewBox="0 0 24.0 24.0" xmlns="http://www.w3.org/2000/svg" xmlns:xlink="http://www.w3.org/1999/xlink"><defs><clipPath id="i0"><path d="M16.4583333,0 C18.4166667,0 20,1.62393162 20,3.63247863 L20,16.3675214 C20,18.3760684 18.4166667,20 16.4583333,20 L3.54166667,20 C1.58333333,20 0,18.3760684 0,16.3675214 L0,3.63247863 C0,1.62393162 1.58333333,0 3.54166667,0 L16.4583333,0 Z M6.731,3.808 L6.715,3.817 L6.469,3.954 L6.28640422,4.065167 C4.76905498,5.01662053 3.64257022,6.53384314 3.20261356,8.3212037 L3.14180598,8.59129686 C3.13755348,8.61211033 3.13339333,8.6329574 3.12927918,8.65403433 C3.11404479,8.73225357 3.10011288,8.8109384 3.08754688,8.88986367 C3.08361641,8.91452946 3.07981477,8.93923816 3.07614056,8.96395414 C3.04552665,9.17030406 3.02391791,9.37959067 3.01175697,9.59087864 L3.00721818,9.67924637 L3.005,9.745 L3.007,9.693 L3.001,9.943 L3,9.971 L3,10 C3,11.7495259 3.64183842,13.3491559 4.70289497,14.57626 L4.89444668,14.7888954 L4.90836811,14.8037468 C4.91737333,14.8132881 4.92640508,14.8228041 4.93555919,14.8323379 C4.99030023,14.8896915 5.04600566,14.9461166 5.10234118,15.0013384 C5.13263504,15.0310079 5.16319737,15.0604045 5.19387408,15.0893308 C5.26021531,15.1520027 5.32778146,15.2133917 5.39612117,15.2731505 C5.41461757,15.2893132 5.43319977,15.3053802 5.45203671,15.3214425 C5.51729382,15.3772674 5.58358998,15.4319128 5.65115507,15.4856164 L5.74,15.554 L5.96935802,15.7238987 L5.8085098,15.6069593 L5.82100606,15.6162205 L5.94381008,15.7056978 L5.96969535,15.7240449 C7.1092242,16.527863 8.49947566,17 10,17 C10.8550877,17 11.6743683,16.8466756 12.4319402,16.5660675 C12.4443947,16.5614524 12.4568325,16.5568029 12.4688066,16.552207 C12.5205283,16.5327088 12.5719584,16.5126157 12.6234654,16.4918605 C12.6696534,16.4731756 12.7155966,16.4540121 12.7608863,16.434475 C12.9158536,16.3678934 13.0679342,16.2958773 13.2169622,16.2186975 C13.2329743,16.2103973 13.2489503,16.2020371 13.2649384,16.1935222 C13.3271015,16.1606845 13.3887105,16.1269383 13.4497167,16.092389 L13.5182023,16.0529426 L13.6,16.004 L13.6270194,15.9882309 L13.734556,15.9216199 L13.7497176,15.9120106 C15.5176955,14.7883091 16.7474247,12.8933722 16.9653503,10.7009079 C16.9882403,10.4703979 17,10.2365981 17,10.0000681 C17,9.7640281 16.9883105,9.53064818 16.9654618,9.30024951 C16.8410921,8.04716634 16.38627,6.89128675 15.6891102,5.92069201 C15.680066,5.90809976 15.670981,5.89553876 15.6619022,5.88300471 C15.6056389,5.80576169 15.5478333,5.72971401 15.4885748,5.65500934 L15.4444847,5.59991312 C15.3210636,5.44738771 15.1913632,5.30015242 15.0557996,5.15866409 L14.94,5.042 L14.910527,5.01139988 L14.786,4.893 L14.7609795,4.86845899 L14.5623785,4.6909234 C13.3371037,3.63701255 11.7429363,3 10,3 C9.21970743,3 8.46923416,3.12767094 7.76779804,3.36350098 C7.75934636,3.36634255 7.75090189,3.36919982 7.74246698,3.37201281 C7.64229862,3.40612084 7.5431512,3.4424358 7.44488611,3.48103584 C7.42309872,3.48958195 7.40136457,3.49823414 7.37989776,3.50684649 C7.17531903,3.58947694 6.97553839,3.68149521 6.78087356,3.78253963 L6.738,3.804 Z M11.1863603,11.6680983 C11.6104479,12.7735679 11.9451981,13.9256142 12.1907402,15.1552765 C11.517841,15.441586 10.7774214,15.6 10,15.6 C8.89919555,15.6 7.87257557,15.2823821 7.00735614,14.7335299 C8.68507352,13.1841991 9.9946791,12.2458441 11.1863603,11.6680983 Z M15.5535836,10.7243566 C15.3613893,12.2125235 14.5850143,13.5175666 13.4634452,14.4000124 C13.2115534,13.2646538 12.8867219,12.190298 12.48983,11.157168 C13.4070615,10.8810342 14.3323117,10.7716452 15.4151167,10.7283349 L15.5535836,10.7243566 Z M9.94890003,9.00256796 C10.19656,9.45567796 10.4272797,9.91298779 10.6412697,10.3768778 C9.22585313,11.0517088 7.74405578,12.1323359 5.91806014,13.8337983 C4.97667778,12.8318754 4.4,11.4832865 4.4,10 C4.4,9.98058634 4.40009879,9.96119576 4.40312169,9.94364551 C6.52504365,9.82385599 8.33047632,9.51264474 9.94890003,9.00256796 Z M14.5560125,6.74306538 C15.089005,7.48732472 15.4441576,8.36760819 15.5587152,9.3214476 C14.2772634,9.36364943 13.1177934,9.48891363 11.9447401,9.86055822 C11.7378901,9.40821822 11.5164798,8.96252782 11.2804399,8.52172384 C12.3497132,8.08419583 13.3355156,7.55142436 14.2853638,6.92659093 L14.5560125,6.74306538 Z M7.33724976,5.07216027 C8.03453888,5.97266604 8.66259598,6.86240313 9.22222986,7.76039 C7.87860066,8.15515602 6.36964094,8.41319921 4.59540627,8.52823822 C4.98377666,7.09868395 5.92418939,5.89643503 7.17357211,5.16456383 L7.33724976,5.07216027 Z M10,4.4 C11.3672341,4.4 12.6200235,4.88996932 13.5922073,5.70655741 C12.6339896,6.3435974 11.6498412,6.87164247 10.5793898,7.29474316 C10.0190078,6.37208117 9.39303089,5.463683 8.70081986,4.55147677 C9.11776043,4.45242921 9.55275743,4.4 10,4.4 Z"></path></clipPath></defs><g transform="translate(2.0 2.0)"><g clip-path="url(#i0)"><polygon points="0,0 20,0 20,20 0,20 0,0" stroke="none" fill="#7E7E7E"></polygon></g></g></svg>