<svg width="32" height="32" viewBox="0 0 32 32" xmlns="http://www.w3.org/2000/svg">
    <defs>
        <clipPath id="wmsnadcvja">
            <path d="M1440 0v3260H0V0h1440z"/>
        </clipPath>
        <clipPath id="3jlkycr8ib">
            <path d="M21.944 0c2.612 0 4.723 2.165 4.723 4.843v16.98c0 2.678-2.111 4.844-4.723 4.844H4.722C2.112 26.667 0 24.5 0 21.823V4.843C0 2.165 2.111 0 4.722 0h17.222zm-8.61 4a9.32 9.32 0 0 0-2.977.485l-.028.01a9.103 9.103 0 0 0-.317.113l-.052.02a9.279 9.279 0 0 0-.666.289l-.014.007-.05.024c-.082.04-.163.082-.244.124l-.127.069-.118.067-.054.03-.067.038-.239.145a9.343 9.343 0 0 0-4.2 6.07l-.055.308-.01.06c-.076.48-.116.972-.116 1.474a9.301 9.301 0 0 0 3.322 7.14l.057.048c.08.067.162.132.245.196l.084.065.015.01.181.133-.066-.047.066.048.055.04.026.017a9.29 9.29 0 0 0 5.348 1.684c1.14 0 2.233-.205 3.243-.579l.051-.02c.101-.037.202-.077.302-.119l.029-.012.16-.07.131-.059a7.325 7.325 0 0 0 .385-.189 9.323 9.323 0 0 0 .652-.373l.048-.03a9.332 9.332 0 0 0 4.333-7.883l-.001-.038-.001-.037v-.067l-.003-.141a9.501 9.501 0 0 0-.014-.317l-.011-.146-.002-.021-.004-.045-.004-.044-.004-.049v-.012l-.003-.012a9.269 9.269 0 0 0-1.45-4.142l-.187-.277-.074-.104-.01-.014a9.357 9.357 0 0 0-.423-.542l-.038-.045a9.364 9.364 0 0 0-.465-.506l-.084-.082-.199-.192.024.022-.033-.03a9.298 9.298 0 0 0-6.015-2.486L13.333 4zm1.581 11.557a28.687 28.687 0 0 1 1.341 4.65 7.443 7.443 0 0 1-2.923.593 7.408 7.408 0 0 1-3.989-1.157c2.237-2.065 3.983-3.315 5.571-4.086zm5.823-1.258a7.454 7.454 0 0 1-2.787 4.901 30.316 30.316 0 0 0-1.298-4.324c1.178-.354 2.365-.503 3.74-.565l.345-.012zm-7.473-2.296c.33.605.638 1.214.923 1.833-1.887.9-3.863 2.34-6.296 4.61a7.44 7.44 0 0 1-2.024-5.188c2.83-.16 5.239-.574 7.397-1.255zm6.144-3.011a7.406 7.406 0 0 1 1.335 3.437c-1.708.056-3.254.223-4.818.718a31.75 31.75 0 0 0-.885-1.785 23.285 23.285 0 0 0 4.006-2.127l.362-.243zM9.783 6.763c.93 1.2 1.767 2.387 2.513 3.584-1.791.527-3.803.87-6.169 1.024a7.484 7.484 0 0 1 3.635-4.596l.021-.012zm3.55-.896c1.824 0 3.494.653 4.79 1.741a21.4 21.4 0 0 1-4.017 2.118A42.8 42.8 0 0 0 11.6 6.07a7.487 7.487 0 0 1 1.732-.202z"/>
        </clipPath>
    </defs>
    <g clip-path="url(#wmsnadcvja)" transform="translate(-176 -628)">
        <g clip-path="url(#3jlkycr8ib)" transform="translate(178.667 630.667)">
            <path fill="#7E7E7E" d="M0 0h26.667v26.667H0V0z"/>
        </g>
    </g>
</svg>
