<svg width="32" height="32" viewBox="0 0 32 32" xmlns="http://www.w3.org/2000/svg">
    <defs>
        <clipPath id="diw7bln23a">
            <path d="M1440 0v3260H0V0h1440z"/>
        </clipPath>
        <clipPath id="xcvfdkixob">
            <path d="M21.944 0c2.612 0 4.723 2.165 4.723 4.843v16.98c0 2.678-2.111 4.844-4.723 4.844H4.722C2.112 26.667 0 24.5 0 21.823V4.843C0 2.165 2.111 0 4.722 0h17.222zM11.623 5.54A8.164 8.164 0 0 0 8.14 7.282a8.002 8.002 0 0 0-2.253 3.144 7.892 7.892 0 0 0 .863 7.423 8.08 8.08 0 0 0 2.917 2.56c1.169.608 2.47.925 3.792.923 4.477 0 8.525-2.909 7.785-9.455h-7.75v3.273h4.393c-.702 2.182-2.437 2.91-4.428 2.91a4.855 4.855 0 0 1-2.217-.533 4.777 4.777 0 0 1-1.717-1.48 4.662 4.662 0 0 1-.58-4.33 4.723 4.723 0 0 1 1.267-1.87 4.819 4.819 0 0 1 2-1.08 4.867 4.867 0 0 1 2.281-.05 4.826 4.826 0 0 1 2.046.996l2.414-2.265a8.155 8.155 0 0 0-3.425-1.85 8.237 8.237 0 0 0-3.906-.06z"/>
        </clipPath>
    </defs>
    <g clip-path="url(#diw7bln23a)" transform="translate(-560 -740)">
        <g clip-path="url(#xcvfdkixob)" transform="translate(562.667 742.667)">
            <path fill="#7E7E7E" d="M0 0h26.667v26.667H0V0z"/>
        </g>
    </g>
</svg>
