<svg width="24" height="24" viewBox="0 0 24 24" xmlns="http://www.w3.org/2000/svg">
    <defs>
        <clipPath id="rsb1m12dja">
            <path d="M1440 0v3260H0V0h1440z"/>
        </clipPath>
        <clipPath id="1rp5c65hbb">
            <path d="M16.458 0C18.417 0 20 1.624 20 3.632v12.736C20 18.376 18.417 20 16.458 20H3.542C1.583 20 0 18.376 0 16.368V3.632C0 1.624 1.583 0 3.542 0h12.916zM12.8 3H7.2A4.2 4.2 0 0 0 3 7.2v5.6A4.2 4.2 0 0 0 7.2 17h5.6a4.2 4.2 0 0 0 4.2-4.2V7.2A4.2 4.2 0 0 0 12.8 3zm0 1.4a2.8 2.8 0 0 1 2.8 2.8v5.6a2.8 2.8 0 0 1-2.8 2.8H7.2a2.8 2.8 0 0 1-2.8-2.8V7.2a2.8 2.8 0 0 1 2.8-2.8h5.6zM10 6.5a3.5 3.5 0 1 0 0 7 3.5 3.5 0 0 0 0-7zm0 1.4a2.1 2.1 0 1 1 0 4.2 2.1 2.1 0 0 1 0-4.2zm3.5-2.1a.7.7 0 1 0 0 1.4.7.7 0 0 0 0-1.4z"/>
        </clipPath>
    </defs>
    <g clip-path="url(#rsb1m12dja)" transform="translate(-1120 -3140)">
        <g clip-path="url(#1rp5c65hbb)" transform="translate(1122 3142)">
            <path fill="#7E7E7E" d="M0 0h20v20H0V0z"/>
        </g>
    </g>
</svg>
