<svg width="24" height="24" viewBox="0 0 24 24" xmlns="http://www.w3.org/2000/svg">
    <defs>
        <clipPath id="pdfci3n0xa">
            <path d="M1440 0v6544H0V0h1440z"/>
        </clipPath>
        <clipPath id="cltes1ja4b">
            <path d="M18.52 0c.805-.01 1.469.635 1.48 1.442v17.115A1.463 1.463 0 0 1 18.52 20H1.474A1.46 1.46 0 0 1 0 18.557V1.443A1.46 1.46 0 0 1 1.475.001zm-5.034 7.26a3.12 3.12 0 0 0-2.807 1.542h-.04V7.498H7.794v9.544h2.963v-4.72c0-1.247.236-2.452 1.78-2.452 1.521 0 1.541 1.424 1.541 2.53v4.642h2.964v-5.236c0-2.57-.552-4.546-3.556-4.546zm-7.555.238H2.965v9.544H5.93V7.498zM4.45 2.753a1.72 1.72 0 1 0 0 3.439 1.72 1.72 0 0 0 0-3.439z"/>
        </clipPath>
    </defs>
    <g clip-path="url(#pdfci3n0xa)" transform="translate(-1256 -158)">
        <g clip-path="url(#cltes1ja4b)" transform="translate(1258 160)">
            <path fill="#7E7E7E" d="M0 0h20v20H0V0z"/>
        </g>
    </g>
</svg>
