<svg width="24" height="24" viewBox="0 0 24 24" xmlns="http://www.w3.org/2000/svg">
    <defs>
        <clipPath id="jxiaygucqa">
            <path d="M1440 0v3260H0V0h1440z"/>
        </clipPath>
        <clipPath id="85gtktcvab">
            <path d="M16.458 0C18.417 0 20 1.624 20 3.632v12.736C20 18.376 18.417 20 16.458 20H3.542C1.583 20 0 18.376 0 16.368V3.632C0 1.624 1.583 0 3.542 0zm-2.37 6.018c-.376.007-.953.208-3.73 1.363-.973.405-2.917 1.242-5.832 2.512-.473.189-.721.373-.743.553-.044.345.454.453 1.08.656.511.167 1.198.361 1.554.369.325.006.686-.127 1.086-.401.817-.552 1.515-1.021 2.095-1.409l.54-.36c1.003-.667 1.53-1.007 1.583-1.018.062-.015.147-.032.207.02.059.051.052.15.046.176-.024.101-.626.69-1.262 1.292l-.318.3c-.58.544-1.11 1.032-1.176 1.1-.562.584-1.202.942-.215 1.592.854.564 1.352.923 2.232 1.5.563.368 1.003.805 1.584.752.267-.024.543-.275.683-1.025.331-1.77.983-5.608 1.133-7.19.038-.4-.075-.788-.547-.782z"/>
        </clipPath>
    </defs>
    <g clip-path="url(#jxiaygucqa)" transform="translate(-1120 -3172)">
        <g clip-path="url(#85gtktcvab)" transform="translate(1122 3174)">
            <path fill="#7E7E7E" d="M0 0h20v20H0V0z"/>
        </g>
    </g>
</svg>
